<svg xmlns="http://www.w3.org/2000/svg" viewBox="0 0 179.53 177.82"><g id="Layer_2" data-name="Layer 2"><g id="Layer_1-2" data-name="Layer 1"><path fill="#20232a" d="M136.57,45.11a46.84,46.84,0,0,0-93.61,0,46.61,46.61,0,0,0,3.88,93.08H62.23a4,4,0,0,0,0-8H46.84a38.81,38.81,0,1,1,0-77.61,3.58,3.58,0,0,0,2.87-1.09,3.85,3.85,0,0,0,1.08-2.86c0-.64,0-1.25,0-1.84a39,39,0,0,1,78,0c0,.6,0,1.2,0,1.85a3.89,3.89,0,0,0,1.08,2.88,3.94,3.94,0,0,0,2.92,1.21,38.73,38.73,0,1,1-.05,77.46H116.53a4,4,0,0,0,0,8h16.16a46.63,46.63,0,0,0,3.88-93.12Z"/><path fill="#20232a" d="M115.23,107.69a3.35,3.35,0,0,0,2.51,1.14,3.62,3.62,0,0,0,2.63-1.14,3.91,3.91,0,0,0-.07-5.53L92.68,74.57a4,4,0,0,0-4-1,3.9,3.9,0,0,0-2.57,2l-26.62,26.6a3.92,3.92,0,0,0,0,5.53,4.43,4.43,0,0,0,6,0l21-20.61v86.84a4,4,0,0,0,8,0V86.46Z"/></g></g></svg>