<svg xmlns="http://www.w3.org/2000/svg" viewBox="0 0 177.68 178.41"><g id="Layer_2" data-name="Layer 2"><g id="Layer_1-2" data-name="Layer 1"><path fill="#20232a" d="M67.15,24a43.14,43.14,0,1,0,43.14,43.13A43.18,43.18,0,0,0,67.15,24Zm0,82.36a39.23,39.23,0,1,1,39.23-39.23A39.27,39.27,0,0,1,67.15,106.38Z"/><path fill="#20232a" d="M174,156.85l-51.57-51.58a67.23,67.23,0,1,0-18,17.73l51.72,51.72A12.63,12.63,0,1,0,174,156.85ZM7.81,67.15a59.34,59.34,0,1,1,59.34,59.34A59.41,59.41,0,0,1,7.81,67.15Zm160.65,102a4.82,4.82,0,0,1-6.81,0l-51-50.95a68.51,68.51,0,0,0,6.87-6.76l50.9,50.9A4.82,4.82,0,0,1,168.46,169.19Z"/></g></g></svg>