<svg height='15px' width='15px'  fill="#c4c4c4" xmlnsx="http://ns.adobe.com/Extensibility/1.0/" xmlnsi="http://ns.adobe.com/AdobeIllustrator/10.0/" xmlnsgraph="http://ns.adobe.com/Graphs/1.0/" xmlns="http://www.w3.org/2000/svg" xmlnsxlink="http://www.w3.org/1999/xlink" version="1.1" x="0px" y="0px" viewBox="0 0 100 100" style="enableBackground:new 0 0 100 100;" xmlSpace="preserve"><g><g iextraneous="self"><path d="M96.3,15.2C94.8,13,93,10.9,91,8.9c-1.8-1.7-4.4-3.7-6.2-4.9c-3-2.1-7.1-1.7-9.6,0.8L11.5,68.4c-0.2,0.2-0.4,0.5-0.5,0.8    L2.7,92.8c-0.4,1.3-0.1,2.7,0.8,3.6c0.7,0.7,1.5,1,2.4,1c0.4,0,0.8-0.1,1.2-0.2l23.5-8.3c0.3-0.1,0.6-0.3,0.8-0.5l63.8-63.8    C97.8,22.1,98.2,18.1,96.3,15.2z M14.9,71.3c5.4,3.7,10,8.3,13.7,13.7l-13.7,4.8c-0.5-1-1.1-2-2-2.9c-0.9-0.9-1.9-1.5-2.9-2    L14.9,71.3z"></path></g></g></svg>