<svg xmlns="http://www.w3.org/2000/svg" viewBox="0 0 185.18 175.85"><g id="Layer_2" data-name="Layer 2"><g id="Layer_1-2" data-name="Layer 1"><path fill="#20232a" d="M184.54,39.76a3.9,3.9,0,0,0-5.41-1.11L149,58.5A3.9,3.9,0,0,0,147.33,61c0,.14-2.93,13.78-7.69,20.85-4.61,6.84-12.25,12-17.19,11.82L116,83.89a32.67,32.67,0,0,0,4.61.34,22.86,22.86,0,0,0,11-2.59,3.91,3.91,0,1,0-3.72-6.88c-8.11,4.4-19.75-1.26-19.89-1.33l-.11-.05-.16-.07-.24-.09-.14,0-.29-.07-.11,0c-.14,0-.27-.11-.4-.12s0-.08,0-.08h0c-.14,0-.29.06-.43.07s0,0-.07,0l-.33.06a.8.8,0,0,0-.15,0l-.25.06-.16,0-.23.08-.16.06-.23.1-.14.07-.27.17-.07,0c-.12.08-.23.17-.34.26v0l-.29.27,0,0L82.74,96.67l0,0a5.34,5.34,0,0,1-7.34.42l-.09-.07a4.73,4.73,0,0,1-1.63-3.35A5.36,5.36,0,0,1,75,89.78L87.29,76.12v0a.5.5,0,0,0,.07-.08l.25-.33.07-.11a3.47,3.47,0,0,0,.25-.46h0L97.1,54.88A3.91,3.91,0,0,0,90,51.66L84.17,64.51,58.47,81.65,76.94,49a19.75,19.75,0,0,1,13.8-9.76l31.72-5.61a3.87,3.87,0,0,0,1.5-.61l38.61-25.9A3.91,3.91,0,0,0,158.21.66L120.29,26.11,89.38,31.57A27.57,27.57,0,0,0,70.14,45.18L44.05,91.28,1.74,119.5a3.9,3.9,0,0,0-1.08,5.42l32.81,49.19a3.9,3.9,0,0,0,5.42,1.08l92.23-61.53a3.91,3.91,0,0,0,1.08-5.42l-5-7.44a26.74,26.74,0,0,0,7.13-3.23,41,41,0,0,0,11.76-11.39c4.6-6.83,7.52-17.9,8.5-22l28.81-19A3.9,3.9,0,0,0,184.54,39.76ZM37.81,166.52,9.33,123.84,70.66,82.91l-1.47,1.64a13.26,13.26,0,0,0-3.34,9.66,12.51,12.51,0,0,0,4.22,8.66l.13.12a13.24,13.24,0,0,0,8.65,3.19,12.91,12.91,0,0,0,9.65-4.24l17.26-18.76,11.15,16.23,6.62,9.92Z"/><path fill="#20232a" d="M77,116.83a9.33,9.33,0,0,0-2.71-2.71,8.38,8.38,0,0,0-3.43-1.26,9.16,9.16,0,0,0-3.46.12c-1.15.26-2.63.7-4.46,1.3l-5.18-7.76a5.06,5.06,0,0,1,5,1.11,2.8,2.8,0,0,0,3.7.4,2.7,2.7,0,0,0,1.19-1.78,2.63,2.63,0,0,0-.39-2.07,5.57,5.57,0,0,0-1.69-1.55A9.94,9.94,0,0,0,63,101.54a8.07,8.07,0,0,0-3.74-.2,13.94,13.94,0,0,0-4,1.46l-1.35-2c-.68-1-1.42-1.26-2.21-.73s-.83,1.31-.13,2.35l1.32,2a11,11,0,0,0-4.32,6.34,9.6,9.6,0,0,0,5.21,10,8.48,8.48,0,0,0,4.34.6A27.8,27.8,0,0,0,63.31,120l5.79,8.68a6.1,6.1,0,0,1-2.69.32,5.45,5.45,0,0,1-2.12-.74,27.24,27.24,0,0,1-2.44-1.75,2.39,2.39,0,0,0-1.54-.57,3,3,0,0,0-1.68.56,2.8,2.8,0,0,0-1.27,1.88,2.7,2.7,0,0,0,.38,2.08,7.74,7.74,0,0,0,2.17,2.13A9.91,9.91,0,0,0,63.15,134a11,11,0,0,0,4,.13,14.14,14.14,0,0,0,4.51-1.52l1.57,2.36A2.9,2.9,0,0,0,74.37,136a1.27,1.27,0,0,0,1.22-.22,1.11,1.11,0,0,0,.6-1.14,5.17,5.17,0,0,0-.85-1.74L74,131a12.56,12.56,0,0,0,3.67-4.48,9.52,9.52,0,0,0,.92-5A9.93,9.93,0,0,0,77,116.83Zm-20.31-1.36a3.47,3.47,0,0,1-2.31-1.68,3.51,3.51,0,0,1-.67-2.9A7.94,7.94,0,0,1,55.3,108l4.77,7.15A9,9,0,0,1,56.65,115.47Zm16.85,8.39a6.18,6.18,0,0,1-1.9,3.46l-5.46-8.18a9.76,9.76,0,0,1,3.94-.46,3.86,3.86,0,0,1,2.68,1.84A4.63,4.63,0,0,1,73.5,123.86Z"/></g></g></svg>